<svg xmlns="http://www.w3.org/2000/svg">

  <!-- Close: material.io/icons -->

  <symbol id="close" viewBox="0 0 24 24">
    <title>Close</title>
    <path d="M19 6.41L17.59 5 12 10.59 6.41 5 5 6.41 10.59 12 5 17.59 6.41 19 12 13.41 17.59 19 19 17.59 13.41 12z"/>
  </symbol>

  <!-- CodePen -->

  <symbol id="codepen" viewBox="0 0 100 100">
    <title>CodePen</title>
    <path d="M90.38,36.763c-0.015-0.057-0.036-0.113-0.054-0.168c-0.028-0.085-0.055-0.17-0.089-0.253
	c-0.024-0.057-0.052-0.115-0.078-0.17c-0.037-0.079-0.076-0.156-0.118-0.23c-0.031-0.055-0.066-0.109-0.099-0.162
	c-0.047-0.072-0.095-0.143-0.147-0.211c-0.038-0.051-0.078-0.102-0.12-0.151c-0.054-0.064-0.112-0.128-0.173-0.188
	c-0.046-0.047-0.091-0.094-0.138-0.136c-0.063-0.057-0.13-0.113-0.198-0.166c-0.051-0.04-0.102-0.081-0.157-0.119
	c-0.02-0.013-0.038-0.03-0.058-0.043l-37.018-24.68c-1.17-0.78-2.692-0.78-3.862,0L11.05,34.764
	c-0.019,0.013-0.037,0.03-0.057,0.043c-0.054,0.038-0.107,0.079-0.158,0.119c-0.068,0.053-0.134,0.109-0.197,0.166
	c-0.048,0.043-0.094,0.09-0.14,0.136c-0.061,0.06-0.117,0.124-0.174,0.188c-0.04,0.049-0.081,0.1-0.119,0.151
	c-0.051,0.068-0.1,0.139-0.146,0.211c-0.035,0.053-0.068,0.107-0.1,0.162c-0.043,0.074-0.081,0.151-0.118,0.23
	c-0.027,0.055-0.053,0.113-0.078,0.17c-0.034,0.083-0.063,0.168-0.089,0.253c-0.019,0.055-0.038,0.111-0.054,0.168
	c-0.026,0.096-0.043,0.194-0.061,0.292c-0.009,0.051-0.021,0.1-0.028,0.151c-0.02,0.149-0.032,0.3-0.032,0.454v24.68
	c0,0.153,0.012,0.304,0.032,0.456c0.006,0.049,0.019,0.1,0.028,0.149c0.018,0.098,0.035,0.196,0.061,0.292
	c0.016,0.058,0.035,0.113,0.054,0.168c0.027,0.085,0.055,0.171,0.089,0.256c0.024,0.057,0.051,0.113,0.078,0.168
	c0.037,0.079,0.076,0.155,0.118,0.232c0.032,0.053,0.065,0.107,0.1,0.16c0.046,0.072,0.095,0.143,0.146,0.211
	c0.038,0.053,0.079,0.102,0.119,0.151c0.057,0.064,0.113,0.128,0.174,0.187c0.046,0.047,0.092,0.094,0.14,0.137
	c0.063,0.057,0.129,0.113,0.197,0.166c0.051,0.041,0.103,0.081,0.158,0.119c0.019,0.013,0.037,0.03,0.057,0.043l37.019,24.68
	c0.585,0.39,1.258,0.586,1.93,0.586c0.674,0,1.346-0.196,1.931-0.586l37.018-24.68c0.02-0.013,0.038-0.03,0.058-0.043
	c0.054-0.038,0.105-0.079,0.157-0.119c0.068-0.053,0.135-0.109,0.198-0.166c0.048-0.043,0.093-0.09,0.138-0.137
	c0.061-0.059,0.118-0.124,0.173-0.187c0.042-0.049,0.082-0.098,0.12-0.151c0.052-0.068,0.1-0.138,0.147-0.211
	c0.033-0.053,0.068-0.107,0.099-0.16c0.042-0.077,0.081-0.153,0.118-0.232c0.025-0.055,0.054-0.111,0.078-0.168
	c0.034-0.085,0.062-0.171,0.089-0.256c0.018-0.055,0.039-0.111,0.054-0.168c0.026-0.096,0.043-0.194,0.061-0.292
	c0.008-0.049,0.02-0.1,0.028-0.149c0.02-0.151,0.031-0.303,0.031-0.456V37.66c0-0.153-0.011-0.305-0.031-0.454
	c-0.007-0.051-0.019-0.1-0.028-0.151C90.423,36.957,90.406,36.859,90.38,36.763z M53.481,19.485l27.272,18.179l-12.181,8.149
	l-15.09-10.094V19.485z M46.52,19.485v16.234L31.431,45.813l-12.182-8.149L46.52,19.485z M16.462,44.175L25.17,50l-8.708,5.825
	V44.175z M46.52,80.515L19.248,62.335l12.182-8.147L46.52,64.28V80.515z M50,58.234L37.69,50L50,41.765L62.311,50L50,58.234z
	 M53.481,80.515V64.28l15.09-10.092l12.181,8.147L53.481,80.515z M83.539,55.824L74.832,50l8.707-5.825V55.824z"/>
  </symbol>

  <!-- Dribbble -->

  <symbol id="dribbble" viewBox="0 0 100 100">
    <title>Dribbble</title>
    <path d="M62.75,54.031A151.274,151.274,0,0,1,69.565,79.04a35.018,35.018,0,0,0,15-23.487A50.817,50.817,0,0,0,62.75,54.031ZM57.532,41.615c.818,1.67,1.6,3.366,2.327,5.079.259.6.51,1.208.756,1.808A81.091,81.091,0,0,1,85,49.647a34.856,34.856,0,0,0-7.964-21.89C76.969,27.863,71.352,35.973,57.532,41.615ZM55.957,55.729c-20.551,7.16-27.335,21.563-27.472,21.858a34.965,34.965,0,0,0,35.183,4.655,145.642,145.642,0,0,0-7.48-26.592C56.112,55.678,56.036,55.7,55.957,55.729ZM50,91A41,41,0,1,1,91,50,41,41,0,0,1,50,91ZM73.125,23.722a34.975,34.975,0,0,0-31.375-7.75A178.783,178.783,0,0,1,54.84,36.4C68.042,31.45,73.033,23.865,73.125,23.722ZM41.613,16l-.093.021c.054-.013.086-.019.086-.019ZM28.48,77.6l.005-.014c-.259-.2-.538-.39-.792-.6C28.158,77.359,28.48,77.6,28.48,77.6ZM52.423,50.267c.458-.145.917-.283,1.381-.416-.879-1.991-1.838-3.984-2.841-5.95a128.32,128.32,0,0,1-35.948,4.99c-.011.368-.028.735-.028,1.109a34.883,34.883,0,0,0,8.983,23.412c-.011-.012-.024-.03-.024-.03S33.53,56.379,52.423,50.267ZM48.062,38.506a211.662,211.662,0,0,0-13-20.176A35.072,35.072,0,0,0,15.735,42.78,129.451,129.451,0,0,0,48.062,38.506Z"/>
  </symbol>

  <!-- Facebook -->

  <symbol id="facebook" viewBox="0 0 100 100">
    <title>Facebook</title>
    <path d="M71.3,24.6H58.9c-1.5,0-3.1,1.9-3.1,4.5V38h15.4v12.7H55.8v38.1H41.3V50.7H28V38h13.2v-7.5
  c0-10.7,7.4-19.4,17.7-19.4h12.4L71.3,24.6L71.3,24.6z"/>
  </symbol>
  
  <!-- GitHub -->

  <symbol id="github" viewBox="0 0 100 100">
    <title>GitHub</title>
    <path d="M36.821,56.422c-2.975,0-5.388,3.334-5.388,7.449s2.413,7.452,5.388,7.452,5.391-3.335,5.391-7.452S39.8,56.422,36.821,56.422Zm13.3,23.208h-.233c-15.636,0-27.812-1.865-27.812-17.041a12.833,12.833,0,0,1,4.335-9.81c5.092-4.667,13.7-2.2,23.477-2.2l.117,0,.117,0c9.774,0,18.388-2.471,23.477,2.2a12.833,12.833,0,0,1,4.335,9.81C77.93,77.764,65.755,79.629,50.119,79.629Zm31.826-42.6c.614-1.512.644-10.1-2.628-18.326,0,0-7.509.822-18.871,8.608A44.955,44.955,0,0,0,50,26.33a44.964,44.964,0,0,0-10.445.985c-11.361-7.785-18.869-8.608-18.869-8.608-3.273,8.223-3.243,16.814-2.63,18.326a22.423,22.423,0,0,0-6.2,16.024c0,29.753,24.715,30.23,30.954,30.23,1.412,0,4.219,0,7.185.007s5.775-.007,7.185-.007c6.239,0,30.954-.477,30.954-30.23A22.416,22.416,0,0,0,81.945,37.032ZM63.181,56.422c-2.977,0-5.391,3.334-5.391,7.449s2.414,7.452,5.391,7.452,5.388-3.335,5.388-7.452S66.156,56.422,63.181,56.422Z"/>
  </symbol>
  
  <!-- Instagram -->

  <symbol id="instagram" viewBox="0 0 100 100">
    <title>Instagram</title>
    <path class="st0" d="M50,16.9c10.8,0,12.1,0,16.3,0.2c3.9,0.2,6.1,0.8,7.5,1.4c1.9,0.7,3.2,1.6,4.6,3c1.4,1.4,2.3,2.8,3,4.6c0.6,1.4,1.2,3.6,1.4,7.5c0.2,4.3,0.2,5.5,0.2,16.3s0,12.1-0.2,16.3c-0.2,3.9-0.8,6.1-1.4,7.5c-0.7,1.9-1.6,3.2-3,4.6c-1.4,1.4-2.8,2.3-4.6,3c-1.4,0.6-3.6,1.2-7.5,1.4c-4.3,0.2-5.5,0.2-16.3,0.2s-12.1,0-16.3-0.2c-3.9-0.2-6.1-0.8-7.5-1.4c-1.9-0.7-3.2-1.6-4.6-3c-1.4-1.4-2.3-2.8-3-4.6c-0.6-1.4-1.2-3.6-1.4-7.5c-0.2-4.3-0.2-5.5-0.2-16.3s0-12.1,0.2-16.3c0.2-3.9,0.8-6.1,1.4-7.5c0.7-1.9,1.6-3.2,3-4.6c1.4-1.4,2.8-2.3,4.6-3c1.4-0.6,3.6-1.2,7.5-1.4C37.9,16.9,39.2,16.9,50,16.9M50,9.6c-11,0-12.3,0-16.6,0.2c-4.3,0.2-7.2,0.9-9.8,1.9c-2.7,1-4.9,2.4-7.2,4.7c-2.2,2.2-3.6,4.5-4.7,7.2c-1,2.6-1.7,5.5-1.9,9.8C9.7,37.7,9.6,39,9.6,50c0,11,0,12.3,0.2,16.6c0.2,4.3,0.9,7.2,1.9,9.8c1,2.7,2.4,4.9,4.7,7.2c2.2,2.2,4.5,3.6,7.2,4.7c2.6,1,5.5,1.7,9.8,1.9c4.3,0.2,5.7,0.2,16.6,0.2s12.3,0,16.6-0.2c4.3-0.2,7.2-0.9,9.8-1.9c2.7-1,4.9-2.4,7.2-4.7c2.2-2.2,3.6-4.5,4.7-7.2c1-2.6,1.7-5.5,1.9-9.8c0.2-4.3,0.2-5.7,0.2-16.6s0-12.3-0.2-16.6c-0.2-4.3-0.9-7.2-1.9-9.8c-1-2.7-2.4-4.9-4.7-7.2c-2.2-2.2-4.5-3.6-7.2-4.7c-2.6-1-5.5-1.7-9.8-1.9C62.3,9.7,61,9.6,50,9.6L50,9.6z"/>
    <path class="st0" d="M50,29.3c-11.4,0-20.7,9.3-20.7,20.7S38.6,70.7,50,70.7S70.7,61.4,70.7,50S61.4,29.3,50,29.3z M50,63.5c-7.4,0-13.5-6-13.5-13.5c0-7.4,6-13.5,13.5-13.5c7.4,0,13.5,6,13.5,13.5C63.5,57.4,57.4,63.5,50,63.5z"/>
    <circle class="st0" cx="71.5" cy="28.5" r="4.8"/>
  </symbol>

  <!-- LinkedIn -->

  <symbol id="linkedin" viewBox="0 0 100 100">
    <title>LinkedIn</title>
    <path d="M38,51.8c0-6.3-0.2-11.5-0.4-16.1h13.6l0.7,7h0.3c2.1-3.3,7.1-8.1,15.6-8.1c10.3,0,18,6.9,18,21.7v29.7H70.1 V58.2c0-6.5-2.3-10.9-7.9-10.9c-4.3,0-6.9,3-8,5.9c-0.4,1-0.5,2.5-0.5,3.9v29H38V51.8z M14.6,86.1V35.7h15.7v50.3H14.6z M30.8,21.7 c0,4.3-3.2,7.8-8.5,7.8c-4.9,0-8.1-3.5-8.1-7.8c0-4.4,3.3-7.8,8.3-7.8C27.6,13.9,30.7,17.3,30.8,21.7z"/>
  </symbol>

  <!-- Personal -->

  <symbol id="personal" viewBox="0 0 100 100">
    <title>Personal Site</title>
    <path d="M50,8C26.838,8,8,26.84,8,50.003C8,73.16,26.838,92,50,92s42-18.84,42-41.997C92,26.84,73.162,8,50,8z M79.885,32.297
	H67.278c-2.765-6.847-6.486-12.417-9.59-16.261C67.143,18.179,75.062,24.191,79.885,32.297z M84.882,50.003
	c0,3.712-0.739,7.223-1.818,10.581H69.526c0.826-3.346,1.439-6.829,1.439-10.581c0-3.735-0.607-7.226-1.427-10.588h13.524
	C84.143,42.776,84.882,46.289,84.882,50.003z M40.558,67.71h18.876C56.386,73.949,52.473,78.809,50,81.489
	C47.524,78.809,43.608,73.949,40.558,67.71z M37.723,60.584c-0.97-3.3-1.577-6.846-1.577-10.581c0-3.714,0.596-7.266,1.555-10.588
	h24.603c0.952,3.318,1.543,6.87,1.543,10.588c0,3.735-0.607,7.281-1.577,10.581H37.723z M15.118,50.003
	c0-3.715,0.739-7.227,1.82-10.588h13.517c-0.819,3.362-1.427,6.853-1.427,10.588c0,3.751,0.613,7.235,1.439,10.581H16.935
	C15.856,57.227,15.118,53.716,15.118,50.003z M50.007,17.955c2.518,2.812,6.482,7.89,9.536,14.342H40.471
	C43.529,25.854,47.492,20.771,50.007,17.955z M42.312,16.036c-3.106,3.844-6.829,9.414-9.595,16.261H20.114
	C24.935,24.191,32.854,18.179,42.312,16.036z M20.114,67.71h12.661c2.93,7.089,6.909,12.706,10.087,16.425
	C33.158,82.108,25.033,75.976,20.114,67.71z M57.136,84.135c3.177-3.718,7.154-9.336,10.083-16.425h12.665
	C74.965,75.976,66.838,82.108,57.136,84.135z"/>
  </symbol>

  <!-- Pinterest -->

  <symbol id="pinterest" viewBox="0 0 100 100">
    <title>Pinterest</title>
    <path d="M49.953,9.208A40.761,40.761,0,0,0,35.011,87.985c-.359-3.227-.682-8.178.142-11.7.745-3.184,4.808-20.276,4.808-20.276a14.665,14.665,0,0,1-1.227-6.056c0-5.672,3.3-9.907,7.419-9.907,3.5,0,5.188,2.613,5.188,5.746,0,3.5-2.24,8.732-3.4,13.582-.966,4.06,2.047,7.371,6.071,7.371,7.287,0,12.889-7.645,12.889-18.68,0-9.767-7.054-16.6-17.126-16.6-11.666,0-18.513,8.706-18.513,17.7a15.815,15.815,0,0,0,3.051,9.309,1.215,1.215,0,0,1,.284,1.17c-.311,1.289-1,4.059-1.139,4.626-.179.747-.594.905-1.371.546C26.971,62.45,23.77,55,23.77,49.019c0-12.868,9.4-24.685,27.09-24.685,14.223,0,25.276,10.083,25.276,23.559,0,14.058-8.909,25.372-21.276,25.372-4.154,0-8.06-2.147-9.4-4.684,0,0-2.056,7.788-2.554,9.7-.926,3.543-3.425,7.985-5.1,10.694A40.832,40.832,0,1,0,49.953,9.208Z"/>
  </symbol>

  <!-- Twitter -->

  <symbol id="twitter" viewBox="0 0 100 100">
    <title>Twitter</title>
    <path d="M91.6,24c-3.1,1.4-6.4,2.3-9.9,2.7c3.6-2.1,6.3-5.5,7.6-9.5c-3.3,2-7,3.4-10.9,4.2c-3.1-3.3-7.6-5.4-12.6-5.4 c-9.5,0-17.2,7.7-17.2,17.2c0,1.3,0.2,2.7,0.4,3.9c-14.3-0.7-27-7.6-35.5-18c-1.5,2.5-2.3,5.5-2.3,8.6c0,6,3,11.2,7.7,14.3 c-2.8-0.1-5.5-0.9-7.8-2.1c0,0.1,0,0.1,0,0.2c0,8.3,5.9,15.3,13.8,16.8c-1.4,0.4-3,0.6-4.5,0.6c-1.1,0-2.2-0.1-3.2-0.3 c2.2,6.8,8.5,11.8,16.1,11.9c-5.9,4.6-13.3,7.4-21.4,7.4c-1.4,0-2.8-0.1-4.1-0.2c7.6,4.9,16.7,7.7,26.4,7.7 c31.6,0,48.9-26.2,48.9-48.9c0-0.7,0-1.5-0.1-2.2C86.4,30.5,89.3,27.5,91.6,24z"/>
  </symbol>
</svg>
