<svg xmlns="http://www.w3.org/2000/svg" viewBox="0 0 353 359.61"><defs><style>.cls-1,.cls-5{fill:none;}.cls-2{isolation:isolate;}.cls-3,.cls-4{fill:#8dd5e8;}.cls-3{opacity:0.2;}.cls-5{stroke:#939598;stroke-miterlimit:10;stroke-dasharray:3.02 3.78;}.cls-12,.cls-6{fill:#fff;}.cls-7{fill:#e3e0c1;}.cls-8{fill:#b2b098;}.cls-9{fill:#838071;}.cls-10{font-size:18.09px;}.cls-10,.cls-11{fill:#1b75bc;}.cls-10,.cls-12{font-family:MijaW03-Bold, MijaW03-Bold;}.cls-12{font-size:40.6px;letter-spacing:-0.04em;}.cls-13{fill:#2b82bf;}.cls-14{fill:#fedd10;}.cls-15{fill:#df5b27;}.cls-16{fill:#8dc63f;}.cls-17{fill:#9a1e26;}.cls-18{fill:#cf232c;}.cls-19{fill:#be1e2d;}.cls-20{fill:#010101;opacity:0.3;}.cls-20,.cls-22{mix-blend-mode:multiply;}.cls-21{fill:#e83d32;}.cls-22{fill:#231f20;opacity:0.1;}.cls-23{clip-path:url(#clip-path);}.cls-24{fill:#ffde17;}</style><clipPath id="clip-path"><path class="cls-1" d="M226.91 187.32s-33.43 43.26-75 49.77l-11.58-12.89s29.41-32.45 37.83-55.67z"/></clipPath></defs><title>Artboard 16</title><g class="cls-2"><g id="Layer_1" data-name="Layer 1"><circle class="cls-3" cx="179.97" cy="194.51" r="134.27"/><circle class="cls-4" cx="179.97" cy="194.51" r="92.72"/><path class="cls-5" d="M139.9 62.83c12.83 8.45 30.62 6.58 43.51-1.78 5.25-3.4 10-7.94 12.42-13.7s2.21-12.89-1.62-17.84-11.57-6.82-16.7-3.24c-6.06 4.22-6 13.88-1.55 19.78s11.85 8.74 19 10.45a95.86 95.86 0 0 0 14 2.26c7.38.64 15.65.08 20.86-5.19 4-4 5.67-10.35 10.71-12.89 4.86-2.44 11.25.11 14 4.78s2.28 10.79-.22 15.61-6.72 8.54-11.31 11.48a59.58 59.58 0 0 1-26.61 9.19c-5.65.53-12.92-1-14-6.54-.91-4.51 3.73-8.84 8.33-8.6s8.45 4 10 8.32 1.22 9.11.4 13.63a68.37 68.37 0 0 1-14.88 31.62"/><circle class="cls-6" cx="127.58" cy="61.25" r="1.05"/><circle class="cls-7" cx="99.25" cy="68.37" r="47.38"/><circle class="cls-7" cx="98.24" cy="68.37" r="47.38"/><ellipse class="cls-8" cx="75.38" cy="80.18" rx="13.38" ry="11.13"/><path class="cls-9" d="M66.15 82.66c0-6.15 6-11.13 13.38-11.13a15.62 15.62 0 0 1 5.59 1 14.71 14.71 0 0 0-9.74-3.5C68 69.05 62 74 62 80.18c0 4.48 3.19 8.35 7.78 10.11a10.18 10.18 0 0 1-3.63-7.63z"/><ellipse class="cls-8" cx="100.76" cy="64.87" rx="3.6" ry="2.57"/><path class="cls-9" d="M98.28 65.44c0-1.42 1.61-2.57 3.6-2.57a4.82 4.82 0 0 1 1.5.24 4.36 4.36 0 0 0-2.62-.81c-2 0-3.6 1.15-3.6 2.57a2.68 2.68 0 0 0 2.09 2.33 2.24 2.24 0 0 1-.97-1.76z"/><ellipse class="cls-8" cx="98.4" cy="100.85" rx="9.07" ry="8.73"/><path class="cls-9" d="M92.14 102.79a8.9 8.9 0 0 1 9.07-8.73 9.32 9.32 0 0 1 3.79.8 9.2 9.2 0 0 0-6.6-2.75 8.9 8.9 0 0 0-9.07 8.73 8.72 8.72 0 0 0 5.28 7.93 8.53 8.53 0 0 1-2.47-5.98z"/><ellipse class="cls-8" cx="106.07" cy="80.8" rx="6.82" ry="6.56" transform="rotate(-63.63 106.077 80.8)"/><path class="cls-9" d="M105.29 85.67a6.69 6.69 0 0 1-2.85-9 7 7 0 0 1 1.8-2.29 6.92 6.92 0 0 0-4.05 3.53 6.69 6.69 0 0 0 2.85 9 6.56 6.56 0 0 0 7.1-.91 6.41 6.41 0 0 1-4.85-.33z"/><ellipse class="cls-9" cx="59.52" cy="62.3" rx="1.78" ry="1.08"/><ellipse class="cls-9" cx="131.78" cy="55.69" rx="1.13" ry=".69"/><ellipse class="cls-9" cx="112.69" cy="107.49" rx="1.13" ry=".69"/><ellipse class="cls-9" cx="125.41" cy="90.29" rx="1.13" ry=".69"/><ellipse class="cls-9" cx="93.72" cy="89.2" rx="1.78" ry="1.08"/><ellipse class="cls-9" cx="74.41" cy="100.03" rx=".81" ry=".5"/><ellipse class="cls-9" cx="130.65" cy="74.85" rx=".81" ry=".5"/><ellipse class="cls-9" cx="81.72" cy="60.21" rx=".81" ry=".5"/><ellipse class="cls-9" cx="114.63" cy="55.69" rx=".81" ry=".5"/><path class="cls-13" d="M59.52 150.21l-6.42 18.65-.26-19.75-19.9 7.32L50.83 143l-17-11.77 18.93 6.21 3.41-20.8 3.9 21s24.32-8.27 23.23-7.65l-21.25 12s15.08 16.59 14.42 15.75-16.95-7.53-16.95-7.53z"/><path class="cls-14" d="M298.54 127.93l-5.48 16.9-.56-17.83-17.8 7 15.89-12.36-15.46-10.32 17.15 5.28L295 97.77l3.85 18.83s21.77-7.85 20.79-7.28l-18.94 11.12s13.85 14.69 13.25 13.95-15.41-6.46-15.41-6.46z"/><path class="cls-6" d="M232.5 237.66l-4.71 5.74 2.44-7-8.12-.07 8.17-2.35-4.6-6.42 6 4.72 3.9-6.9-1.29 7.94s9.83.32 9.36.39l-9.2 1.39s3.31 7.88 3.18 7.49-5.13-4.93-5.13-4.93zM190 257.93l-14-2.69 14.07-2.24-7.24-13.45L194.2 251l6.67-13.29-2.51 14.13 15.18.32-14.54 4.92s8.37 16.5 7.82 15.79l-10.68-13.94s-10.3 12.44-9.77 11.89 3.63-12.89 3.63-12.89z"/><path class="cls-15" d="M109 304.15l11.68 9.35-14.17-4.86.15 16.08-5-16.19-12.73 9.1 9.26-11.93-14-7.75 16 2.57s.3-19.48.46-18.54l3.11 18.22s15.69-6.53 14.93-6.28-9.69 10.23-9.69 10.23z"/><path class="cls-16" d="M307.36 235.49l-4 11.72-.16-12.42-12.51 4.6L301.9 231l-10.66-7.4 11.9 3.9 2.15-13.08 2.45 13.19s15.29-5.2 14.6-4.81L309 230.29s9.48 10.43 9.07 9.9-10.71-4.7-10.71-4.7z"/><path class="cls-6" d="M308.19 179.22a10.67 10.67 0 0 0-3.09-2.77c2.11-2.17 2.77-4 2.84-5.73a6.32 6.32 0 0 0-2.93-5.6c-4.73-3.24-11 1-13.37 2.59a54.8 54.8 0 0 0-7.76 6.33l-.13.14-.53.62c-3.19-2.12-7.27-4-10.87-2.57a33.8 33.8 0 0 0-3.07-11 5 5 0 0 0 .76-4.87 30.26 30.26 0 0 0-9.33-12l.37-4.55a5 5 0 0 0 6.17-4.49c.11-1.46-.29-4.2-3.44-8 4.58-8.31 5.65-19.78 5.77-21.25a5 5 0 0 0-3.38-5.07 44.28 44.28 0 0 0-14.08-2.5c-9.71 0-16 3.95-19.33 7l-1.69-.26a5 5 0 0 0-2.71-3 29.37 29.37 0 0 0-11.31-2.11 32.44 32.44 0 0 0-13.08 2.69C198.64 97.89 186 88 170.76 88c-.92 0-1.86 0-2.77.11a5 5 0 0 0-4.22 3.05c-.42 1-3.76 10.08 1.77 33.21-5.11 2.61-13.76 7.88-18 15.35-.07.12-.12.25-.18.38-1.72-3.15-5.65-4.6-9.19-5.32q0-.4.06-.81v-.19a54.73 54.73 0 0 0-1-10c-.53-2.81-1.95-10.25-7.58-11.32a6.33 6.33 0 0 0-6 1.86c-1.2 1.29-2 3-2.06 6.06a10.67 10.67 0 0 0-4.14-.24 5 5 0 0 0-3.92 3c-1.83 4.45.47 8.15 3.83 11a6.88 6.88 0 0 0 .38 5.26 8.69 8.69 0 0 0 5.53 4.63 53.18 53.18 0 0 0 3.61 14.65 57.85 57.85 0 0 0 7.82 13.52c-2.23-.15-4.52-.23-6.87-.23-20.6 0-40.83 6-60.12 17.76a5 5 0 0 0-1.1.91c-.48.53-11.7 13.09-10.64 28A5 5 0 0 0 64.5 222a123.86 123.86 0 0 1 14.85-11.71c1.15 2.11 2.46 4.66 3.84 7.63-5.9 2-12.88 6.12-13 10.79-.07 2.68 1.82 5.67 6.14 5.89h1a31.28 31.28 0 0 0 6.54-.83 19.86 19.86 0 0 1 3.76-.55 5.24 5.24 0 0 1 1.79.29c1 2.88 1.95 5.95 2.85 9.19a5 5 0 0 0-1.8 2.05c-.16.36-.62 1.38-1.12 2.84-.07.12-.15.23-.21.36s-.15.32-.28.59a28.11 28.11 0 0 0-4.25 7.76 7 7 0 0 0-3-.66c-8.29 0-12.85 14.81-12.85 19.72 0 4.49 3 6.54 5.73 6.54a6.69 6.69 0 0 0 4.51-1.74 28.75 28.75 0 0 0 5-5.8c2.11-3 3.07-4.39 6.82-4.66l1.09-.09a5 5 0 0 0 5.7.26l4.34-2.74a5 5 0 0 0 2.24-3.27 100.32 100.32 0 0 0 17.67-6.54 22 22 0 0 0 11.39 3.5 17.3 17.3 0 0 0 4.38-.56c7.62-2 12.41-8.89 15.43-16.41l2.28-1.7 1.05-.78h.2q1.15-.24 2.29-.51c.67-.16 1.34-.33 2-.51l.76-.21c13.62-3.74 27.47-11.17 41.36-22.17l.78-.62 1.67-1.35q1.23-1 2.4-2h1.68a41.92 41.92 0 0 0 10.68-1.37l.26-.07.44-.12a30.73 30.73 0 0 0 4.36-1.59 5 5 0 0 0 4.58.69 40.14 40.14 0 0 0 6.74-3.17 5 5 0 0 0 4.41 0 51 51 0 0 0 6.5-4.07c.87 0 1.75.05 2.63.05a61.85 61.85 0 0 0 24.08-4.58 53.16 53.16 0 0 0 12.88-7.77 9.77 9.77 0 0 0 4.43 1.17 7.74 7.74 0 0 0 2.74-.5 6.91 6.91 0 0 0 4-3.44c4.39.37 8.64-.6 10.51-5a5 5 0 0 0-.58-5.01z"/><path class="cls-17" d="M178.28 190.49l-35.07-12.2L93 191.13l-13.82 9.17s16 22.57 22 59.45c.63-.34 1.27-.68 1.89-1a99.19 99.19 0 0 1 10.33-5c5.35-2.28 10.58-4.72 15.89-7 .7-.72 1.42-1.42 2.17-2.09 4.47-4 9.85-7.3 14.84-10.43a66.86 66.86 0 0 1 16.86-7.68 27.53 27.53 0 0 1 5.2-6.07 126 126 0 0 1 20.63-14c.5-.28 1-.53 1.53-.76z"/><path class="cls-18" d="M181.4 192.59c1.77.85-49.12-36.28-111 1.55 0 0-10.28 11.33-9.36 24.28-.04 0 57.31-56.22 120.36-25.83z"/><path class="cls-11" d="M133.18 255.82c-8.55 0-18.47-8.7-30.21-26.45l4.34-2.87c11.32 17.11 21.15 25.6 27.66 23.89 5.32-1.39 8.51-9.23 10.25-15.57a85.31 85.31 0 0 0 2.54-14.42l5.19.38c-.23 3.16-2.64 31-16.67 34.65a12.25 12.25 0 0 1-3.1.39z"/><path class="cls-19" d="M102.9 236s-.2-3.5 9.17-9.3l-1.17-5.18s-12.36 4.92-13 13.48z"/><path class="cls-19" d="M109 224.34s-1.38-3.54-13.82 3.37c0 0-1.67 2.24-2.88-4.2s-22.72 5.74-15.73 6.1 11.56-4.2 18.66 1.64 6.37 1.74 6.37 1.74z"/><path class="cls-20" d="M97.79 233.15A19 19 0 0 1 107.6 223s-9.31 3.4-10.37 9.77z"/><path class="cls-11" d="M93.79 260.84l-.54-5.18.27 2.59-.27-2.59c.31 0 31.42-3.59 53.26-30.31l4 3.3c-23.21 28.43-55.36 32.05-56.72 32.19z"/><path class="cls-19" d="M99.22 262.9s-2.55-2.41.26-13.06l-4.41-3s-5.58 12.08-.19 18.75z"/><path class="cls-19" d="M95.63 250.22s-3.44-1.62-7.71 12c0 0 .33 2.78-5-1.07s-12.54 19.8-7.22 15.25 5.5-11 14.67-11.65 5.82-3.12 5.82-3.12z"/><path class="cls-20" d="M93.54 264.34a19 19 0 0 1 .12-14.12s-4.42 8.87-.8 14.23z"/><path class="cls-11" d="M272.22 195.11c-27.7 11.63-60.07-4.65-60.46-4.85l1.58-3.08c.46.24 46.51 23.36 73.81-6.9l2.57 2.32a48.85 48.85 0 0 1-17.5 12.51z"/><path class="cls-21" d="M284.09 183.8c-2.75.72-14.06-3-10.72-6.37 2.65-2.5 8.91 2.83 10.92 4.45l.23-.29a23.44 23.44 0 0 1 3-4.11c1.83-1.93 11.73-10.32 14.69-8.22 4.12 2.66-10.26 10.37-12.58 11.62 3.82-1.94 11.72-2.48 14.56 1.32-1.9 4.52-12.47.45-15.75-.77 1.81 1.17 8.26 5 4.08 6.51-2.16.81-4.82-1.43-6.33-2.74"/><path class="cls-11" d="M131.56 156.95c11.26 27.86 45.62 39.35 46 39.49l1.07-3.29c-.49-.16-49.35-16.55-47.1-57.25l-3.46-.19a48.85 48.85 0 0 0 3.49 21.24z"/><path class="cls-21" d="M131.23 140.55c1.43 2.46 12 7.86 12.07 3.12-.1-3.64-8.28-4.33-10.86-4.62v-.37a23.44 23.44 0 0 0 .81-5c.09-2.66-.94-15.6-4.52-16.22-4.79-1.05-.13 14.59.62 17.12-1.31-4.07-6.5-10.06-11.19-9.4-1.87 4.54 8.46 9.17 11.65 10.63-2.11-.46-9.33-2.37-7.49 1.69.95 2.11 4.41 2.42 6.4 2.56"/><path class="cls-11" d="M226.91 187.32s-33.43 43.26-75 49.77l-11.58-12.89s29.41-32.45 37.83-55.67z"/><path class="cls-22" d="M151.88 237.09c21.79-3.41 41.33-16.9 55-29-24.73 14-50.58 17.68-64.31 18.61z"/><path class="cls-6" d="M188.14 193.01l-23.13-22.19 6.42-37.07 2.22-11.74-3.51-24.76 7.96-2.85 17.25 10.53 16.98 16.95 33.3-12.81 15.55-1.86-10.56 26.01 4.64 26.71-11.84 21.33-28.37 16.38-26.91-4.63z"/><path class="cls-21" d="M171.41 127.2s-14.21 5.67-19.46 15c0 0 8.79-7.52 13.28-8.62 0 0-20.14 14.34-16.4 29.61 0 0 1.76-7.4 4.51-10-.79 2.61-6.09 21.25.47 32.46 0 0-.48-9.63.6-13.67 0 0-1 17.62 21 29.34a29.52 29.52 0 0 1-8-12.33s24.88 25.74 51.41 18.75l.64-.17a31 31 0 0 0 13.32-8.1s-3.33 6.52-4.66 7.29c0 0 10.43-3.59 14.54-10.88 0 0-3 6.73-4 7.93 0 0 12-6 18-16.76 0 0-1.11 4.12-1.78 4.77 0 0 11.87-2.32 9-18.9a6.87 6.87 0 0 1 3.55 4.16 28.19 28.19 0 0 0-7.86-21.27s4.66 1 5.77 2.3a25.33 25.33 0 0 0-9.87-11.31l1.23-15.13 5.54 3.27s.18-2.47-4.85-7c5.93-7.06 7.18-22.24 7.18-22.24-18.57-6.26-27.73 2.32-30.12 5.13a87.58 87.58 0 0 0-17.79-1.61s5-2.87 9.65-2.5a27.11 27.11 0 0 0-23.3 2.14s-15.61-17.24-34.62-15.72c0 0-3.69 8.81 3.02 34.06zM193 110.84c-7.82 2.55-15.16 9.1-15.16 9.1-4.75-7-4.41-20.19-4.41-20.19 9.65-.89 19.57 11.09 19.57 11.09zm39.8 40.76c-1.46 10.33-9.41 17.8-17.75 16.68s-13.93-10.4-12.47-20.73 10.33-24.37 18.68-23.25 13.01 16.97 11.56 27.3zm18.12-23.87s-7.43-10.36-10.76-12.83c-1.44-1.07 7.19-7.47 18-5.22 0-.01-1.04 14.23-7.23 18.05zm-12.24 47.73s-13.44-8.88-6.24-9.72 15.18-1.62 13.06 2.22-6.81 7.5-6.81 7.5zM154 152.72l-.12.32-.23-.07a3.66 3.66 0 0 1 .35-.25z"/><path class="cls-6" d="M203.58 189a57.65 57.65 0 0 0 20.42 2.13.68.68 0 0 0 .64-.71.66.66 0 0 0-.69-.64c-15.55.81-27.19-3-34.61-11.38-11.54-13-8.82-32.8-8.79-33a.66.66 0 0 0-.56-.76.68.68 0 0 0-.75.58c0 .2-2.85 20.6 9.11 34.09a33.4 33.4 0 0 0 15.23 9.69z"/><path class="cls-6" d="M173.6 143.36s8.06-12.72 14.19 3.73c0-.01-5.9-11.34-14.19-3.73z"/><path class="cls-21" d="M210.37 157.34s10.2-16.09 16.75.77c0 0-7.12-10.59-16.75-.77z"/><path class="cls-6" d="M236.54 158.74s10.2-16.09 16.75.77c0 0-7.08-10.58-16.75-.77z"/><g class="cls-23"><path class="cls-6" d="M185.12 229.45l9.17-11.07a2.12 2.12 0 0 0-.28-3l-1.87-1.55c.13.24.25.48.36.73a12.9 12.9 0 0 1 1 3.08l-3.72 1.14a6.43 6.43 0 0 0-1.56-4.21c-1-1.3-2-1.57-3.05-.77a1.75 1.75 0 0 0-.61 1.49 16.5 16.5 0 0 0 .76 3.77 10.67 10.67 0 0 1 .48 3.31 6.19 6.19 0 0 1-.16 1.26 5.68 5.68 0 0 1-2.16 3.11A5.42 5.42 0 0 1 180 228l2.12 1.76a2.12 2.12 0 0 0 3-.31zM180.66 217.65a13.19 13.19 0 0 1-.45-2.74 5.67 5.67 0 0 1 2.1-5.08 4.88 4.88 0 0 1 3.13-1.09 5.61 5.61 0 0 1 .58.05l-3.1-2.56a2.11 2.11 0 0 0-3 .27l-9.16 11.07a2.11 2.11 0 0 0 .28 3l1.27 1.06-.06-.12a16.14 16.14 0 0 1-.82-3.28l4-.94a7.46 7.46 0 0 0 1.56 4.8c1.12 1.46 2.19 1.79 3.22 1a2.42 2.42 0 0 0 1-1.8 13 13 0 0 0-.55-3.64z"/></g><path class="cls-19" d="M142.48 221.76l11.76 14.92-4.5 3.35-11.55-14.68 4.29-3.59z"/><path class="cls-24" d="M142.48 221.76l11.76 14.92-1.95 1.45-11.94-14.59 2.13-1.78z"/></g></g></svg>