<svg xmlns="http://www.w3.org/2000/svg" viewBox="0 0 353 359.61"><defs><style>.cls-1{isolation:isolate;}.cls-2,.cls-3{fill:#d7df23;}.cls-2{opacity:0.2;}.cls-4{font-size:18.09px;}.cls-4,.cls-7{fill:#8dc63f;}.cls-4,.cls-8{font-family:MijaW03-Bold, MijaW03-Bold;}.cls-5{fill:#231f20;opacity:0.1;mix-blend-mode:multiply;}.cls-6,.cls-8{fill:#fff;}.cls-8{font-size:44.58px;letter-spacing:-0.04em;}.cls-9{fill:#8cc540;}.cls-10{fill:#a47d4e;}.cls-11{fill:#527e3a;}.cls-12{fill:#38b34a;}.cls-13{fill:#bf2f2b;}.cls-14{fill:#e93e32;}.cls-15,.cls-16,.cls-17,.cls-18,.cls-19{fill:none;}.cls-15,.cls-19{stroke:#fff;stroke-miterlimit:10;}.cls-15,.cls-16,.cls-17,.cls-18{stroke-linecap:round;}.cls-15{stroke-width:1.09px;}.cls-16,.cls-17,.cls-18{stroke:#527e3a;stroke-linejoin:round;}.cls-16{stroke-width:1.34px;}.cls-17{stroke-width:1.69px;}.cls-18{stroke-width:0.54px;}</style></defs><title>Artboard 15</title><g class="cls-1"><g id="Layer_1" data-name="Layer 1"><circle class="cls-2" cx="186.35" cy="194.51" r="134.27"/><circle class="cls-3" cx="187.22" cy="194.51" r="92.72"/><ellipse class="cls-5" cx="187.53" cy="264.94" rx="87.74" ry="3.89"/><circle class="cls-9" cx="91.39" cy="112.52" r="17.74" transform="rotate(-17.6 91.418 112.542)"/><path class="cls-10" d="M106.77 146.07v-.06l-14.86-37.63-1.36.17 9.24 39q3.47-.83 6.98-1.48z"/><path class="cls-10" d="M95.16 120.76l-15.54 2.93 15.84-.58-.3-2.35zM98.14 126.66l7.4-10.35-8.09 8.64.69 1.71z"/><circle class="cls-11" cx="122.58" cy="123.35" r="8.93" transform="rotate(-78.55 122.588 123.348)"/><path class="cls-10" d="M116.7 141l5.42-19.64h.69l-2.52 20q-1.8-.26-3.59-.36z"/><path class="cls-10" d="M121.14 127.67l7.93.63-7.95.57.02-1.2zM119.97 130.79l-4.26-4.79 4.51 3.89-.25.9z"/><path class="cls-11" d="M82.87 158.22s16.58-43 52.52-11.29z"/><path class="cls-12" d="M148 163.05c1.25-3.29 1.44-7.79-1.64-9.48a5.56 5.56 0 0 0-6.14 1.05 8 8 0 0 0-1 1.06 15.31 15.31 0 0 0 .68-2.36 8.74 8.74 0 0 0-1.46-7.23 7.39 7.39 0 0 0-3.3-2.22 9 9 0 0 0-10.4 4.33 5 5 0 0 0-2.17-4.46 7.6 7.6 0 0 0-7-.25 9 9 0 0 0-4.77 4.54 13.37 13.37 0 0 0-.17-5 7.66 7.66 0 0 0-4.87-5.63 8.38 8.38 0 0 0-6.51 1.15A14.06 14.06 0 0 0 93 153.8a3.72 3.72 0 1 0-6.68 3.28 16 16 0 0 0-4.1-3.19 5.42 5.42 0 0 0-5 0 5 5 0 0 0-2.22 4.5 8.63 8.63 0 0 0 2 4.66z"/><path class="cls-6" d="M174.33 129c-3.48.93-4.94-.74-6.54-3.74.59 4.47-5.07 7.18-9 5.13a3.82 3.82 0 0 1-2-2.22c-4.82 1.64-11.7.16-9.5-2.93 1.69-2.45 6.8-1.7 9.27-1.33-2-.86-4.09-2.22-5-4.21-1.44-2.83-.35-8.59 3.75-7.2 2.47.7 3.72 4.36 4.35 6.51 1.29-7.74 13-6.22 10 2.32a4.68 4.68 0 0 1 5.67-3.37c6.6 1.27 4.31 9.65-1 11.04z"/><path class="cls-7" d="M339.54 245.32c1.67-4.4 1.92-10.42-2.2-12.67-2.6-1.42-6-.56-8.22 1.4a10.72 10.72 0 0 0-1.32 1.42 20.47 20.47 0 0 0 .92-3.16c.66-3.34.22-7.05-1.95-9.67a9.89 9.89 0 0 0-4.41-3c-5.19-1.79-11.37 1-13.9 5.79a6.68 6.68 0 0 0-2.9-6c-2.72-1.79-6.37-1.6-9.37-.34a12.09 12.09 0 0 0-6.38 6.07 17.87 17.87 0 0 0-.23-6.62c-.83-3.37-3.18-6.53-6.51-7.53-2.91-.87-6.09 0-8.71 1.54a18.8 18.8 0 0 0-8.36 20.4 5 5 0 1 0-8.93 4.38 21.41 21.41 0 0 0-5.48-4.27 7.25 7.25 0 0 0-6.7-.06 6.65 6.65 0 0 0-2.93 6.08 11.54 11.54 0 0 0 2.59 6.24z"/><path class="cls-6" d="M309.37 206.92a18.6 18.6 0 0 0-9.85-23.37l-.35-.17a32.92 32.92 0 0 0-12.87-3 44.39 44.39 0 0 0-5.93.15 41.09 41.09 0 0 0-13.49 3.55 17.51 17.51 0 0 1-2.38-.86 13.86 13.86 0 0 1 .25-1.53 17.36 17.36 0 0 1 .73-2.19 3.48 3.48 0 0 0 .17-.52 12.77 12.77 0 0 1 .89-2.51 3.61 3.61 0 0 0 0-3.18 3.45 3.45 0 0 0-2.51-1.87l-70.43-11.66c-3.22-4.26-14.61-16.83-35.88-14.88a57.54 57.54 0 0 0-12.35 2.6A3.5 3.5 0 0 0 143 151a3.59 3.59 0 0 0 .72 2c-9.66 2.35-21.23 7.28-29.47 17.56a3.6 3.6 0 0 0 .26 4.77l.09.07v.12a60.53 60.53 0 0 0-14.66-.32c-1.14.1-2.31.24-3.48.4q-.88.12-1.74.2c-14.06 1.29-23-5.81-26.44-21.08-.14-.62-.27-1.28-.4-2 0-.1-.08-.5-.09-.54s-.06-.32-.08-.47l-.06-.35v-.16-.16c-.16-1-.27-1.85-.33-2.59v-.32s0-.52-.07-.76v-.23c0-.38-.06-.75-.08-1.09a3.62 3.62 0 0 0 0-.42v-.35-.36a3.56 3.56 0 0 0 0-.53v-.4-.73c.18-6.1-1.52-11.21-4.79-14.39a12.25 12.25 0 0 0-9.83-3.37 18.15 18.15 0 0 0-6.75 2.11C31.28 135.1 27.89 153 32 166.84c.37 1.26.82 2.6 1.41 4.21.06.18.13.37.2.54l.08.16c5.89 15.16 20 32.38 40.62 31.52.87 0 1.77-.1 2.67-.18a73 73 0 0 0 19.2-4.63 60.11 60.11 0 0 1 15.79-4.2h.38a46.62 46.62 0 0 0 .11 12.12 11.28 11.28 0 0 0-5 4.76 24.91 24.91 0 0 0-1.41 2.75 6.22 6.22 0 0 1-1.87 2.8c-6 4.61-15.16 11.57-13.21 22.76 1.06 6.07 6.11 11.53 11.8 13.64.07.18.13.36.2.55 2.65 6.66 10.58 11.56 17.7 10.9 5.71-.52 9.66-4.52 10.57-10.7.15-1 .27-2 .37-2.85 4.3 2.14 10.49 4.39 16.8 3.81 12.08-1.11 17.89-11.48 20.63-22.41a31.08 31.08 0 0 0 13 1.69c7.87-.72 15.15-4.63 21.65-11.62a122.76 122.76 0 0 0 31.11 8.27 3.32 3.32 0 0 0 .7 0 3.43 3.43 0 0 0 3-2.59 3.61 3.61 0 0 0-.24-2.46 63.33 63.33 0 0 0 16.57 1.05 30 30 0 0 0 7.57-1.61 3.5 3.5 0 0 0 2.25-3.57 3.6 3.6 0 0 0-.36-1.34c1.29.18 2.63.46 4.06.76.82.17 1.66.35 2.51.5a11.91 11.91 0 0 0 3.32.18 10.53 10.53 0 0 0 4.53-1.52 18 18 0 0 0 2.05 4 11.19 11.19 0 0 0 10.14 5.11h.1a8.81 8.81 0 0 0 5.16-2.32 8.71 8.71 0 0 0 .78-.84 6 6 0 0 0 .86 0 6.78 6.78 0 0 0 4.78-2.83 8.67 8.67 0 0 0 1.71-5.37 7 7 0 0 0 4-2.7 8.58 8.58 0 0 0 1.62-6.39 10.07 10.07 0 0 0-.54-1.87z"/><path class="cls-13" d="M286.18 183.9a37.72 37.72 0 0 0-21.79 5.53c-.71.46-1.4 1-2.06 1.49l2.68-2.13a33.37 33.37 0 0 0-13.2 14c9.13-.88 7.32 7.65 16.17 5.19 5.54-1.54 11.32 3.05 12.14 3a3.22 3.22 0 0 0 1.59-.89l4.7-4a7.32 7.32 0 0 0 .34 1.95 20.82 20.82 0 0 0 .57 2.12 15 15 0 0 0 1.88 3.84 7.88 7.88 0 0 0 7.09 3.64 5.44 5.44 0 0 0 3.19-1.42 6.86 6.86 0 0 0 1.58-6.65 11.53 11.53 0 0 0-4-5.78 10.65 10.65 0 0 1 5.15 10.58c2.51.67 4.71-2.44 4.28-5.07S304 204.7 302 203a13.17 13.17 0 0 1 4.08 3 15.69 15.69 0 0 0-.22-11.53 16.07 16.07 0 0 0-7.77-7.75l-.3-.15a30 30 0 0 0-11.61-2.67z"/><path class="cls-6" d="M117.94 176.15a3.3 3.3 0 0 0 .83-.39l-.29.51z"/><path class="cls-13" d="M121.44 213.42q-.94-.25-1.85-.56c.27.92.56 1.84.9 2.77-.01 0 .36-.9.95-2.21zM275.23 189.31l-1.89-.52c-1.33-.26-2.67-.48-4-.64a20.72 20.72 0 0 1-11.35-5c-8.89.57-17.74 1.61-26.64 2a137.86 137.86 0 0 1-19.13 0 99.89 99.89 0 0 1-15.67-3.15 70.79 70.79 0 0 0-13.37-1.34 82.47 82.47 0 0 0-13.52 2.25c-1.15.29-2.29.62-3.42.94l-.85.29q-1.37.49-2.74.93l-.73.25q-1.22.44-2.43.91c.63 5.46-.56 11.25-3.68 15a35.86 35.86 0 0 1-21.06 12.64 29.59 29.59 0 0 1-8.89.37c-.07 3 .19 5.73 1.15 7.1a9.75 9.75 0 0 0-1-.95 7.52 7.52 0 0 0-4.88-1.64c-2.49.31-3.79 2.58-4.58 4.81-1 2.78-.76 5-2.72 7.26-5 5.81-11 13.14-7.68 21.48 3.6 9.07 19.86 13.61 21.72 1 .19-1.28 1.14-7.72 0-8.6 0 0 33.63 24.92 39.43-21.57 0 0 25.4 14 40.63-14.4a117.49 117.49 0 0 0 33.47 1.8s-9.28-1.89-10.24-6.08c0 0 22.83 2.63 34.56-4.85l-14.17.17s13.58-5.77 23.68-10.46z"/><path class="cls-14" d="M74.12 199.76a67.74 67.74 0 0 0 20.8-4.59c15.57-6.08 24.6-5.46 29.64-1.64.32-1 .66-2 1-3 .72-2.26 1.46-4.52 2.21-6.78-6.43-3.87-16.21-6.65-30.83-4.65-21.78 3-29.35-12.05-32-23.6-.17-.76-.32-1.51-.44-2.22 0-.13 0-.28-.07-.41-.06-.32-.1-.63-.16-.94a1.88 1.88 0 0 1-.06-.36c-.15-1-.28-1.93-.35-2.8v-.31c0-.26 0-.52-.07-.77a2.06 2.06 0 0 1 0-.27c0-.49-.08-1-.1-1.38v-.11-.55a1.31 1.31 0 0 0 0-.28v-.44-.27-.53a1.08 1.08 0 0 0 0-.23v-.19-.17V143.1c.35-11.72-7-17.3-16.38-12.38-12.38 6.49-15.77 22.25-12 35.15.39 1.35.85 2.67 1.35 4 0 .1.07.21.11.31 6.05 15.99 19.55 30.32 37.35 29.58z"/><path class="cls-14" d="M296.28 211.09a13.17 13.17 0 0 1 4.08 3 15.69 15.69 0 0 0-.22-11.53 16.07 16.07 0 0 0-7.77-7.75l-.3-.15A29.94 29.94 0 0 0 280.5 192a39.46 39.46 0 0 0-17 3 16.24 16.24 0 0 1-1.87-6 16.37 16.37 0 0 1-.16-8.12 21 21 0 0 1 .9-2.7 16.25 16.25 0 0 1 1.14-3.21L191.68 163s-13.86-22.29-45.27-12.16c0 0 10.63 2.1 13.88 3.59 0 0-28.17-.61-43.39 18.38 0 0 12-10.77 16.76-8.7 0 0-21.62 15.47-17.81 42 0 0 5.76-8.39 8.88-10.48 0 0-5.47 13.23-3.67 17.46a9.93 9.93 0 0 0-.81-1.15 7.64 7.64 0 0 0-4.44-2.66c-2.5-.23-4.24 1.7-5.47 3.71-1.53 2.5-1.76 4.68-4.14 6.5-6 4.6-13.43 10.46-11.89 19.32 1.68 9.64 16.66 17.58 21.06 5.65.45-1.21 2.69-7.29 1.72-8.4 0 0 27.85 31.61 43-12.55 0 0 22 19.16 42.71-5.29a118.63 118.63 0 0 0 32.39 9s-8.7-3.85-8.78-8.15c0 0 21.81 7.5 34.82 2.73l-13.91-2.9c3.36.7 6.73-1 9.9-1.84 5-1.37 9.34 0 14.21.95 4.24.8 6.28-1.33 9.3-3.87a7.32 7.32 0 0 0 .34 1.95 20.81 20.81 0 0 0 .57 2.12 15 15 0 0 0 1.88 3.87 7.88 7.88 0 0 0 7.09 3.64 5.44 5.44 0 0 0 3.19-1.42 6.86 6.86 0 0 0 1.58-6.65 11.53 11.53 0 0 0-4-5.78 10.65 10.65 0 0 1 5.15 10.58c2.51.67 4.71-2.44 4.28-5.07s-2.51-4.62-4.53-6.29z"/><g id="_Group_" data-name="&lt;Group&gt;"><path id="_Path_" data-name="&lt;Path&gt;" class="cls-6" d="M235.13 203a55.54 55.54 0 0 1-18.07-5.2 3.62 3.62 0 0 1-3.6 2.07 3.59 3.59 0 0 1-1-.23c-7.87-3.06-13.06-7.22-16.48-11.3a3.63 3.63 0 0 1-.43.23 3.55 3.55 0 0 1-1.83.31 3.66 3.66 0 0 1-2.56-1.43c-3.72-4.87-5-11.46-5.35-17.28a3.75 3.75 0 0 1-1.76-2c-2.2-5.72-1.06-11.53 1.19-16.53a3.86 3.86 0 0 1-.85-4.17c1.64-4.06 4.89-8.06 9.66-11.89 1.35-1.08 2.64-2 3.71-2.71a84 84 0 0 1-5.3-19.78c-.57-5 0-7.44.13-7.89a3.68 3.68 0 0 1 2.81-2.67 30.09 30.09 0 0 1 8.72-.42c10.09 1 18.75 6.42 22.66 9.29a26.6 26.6 0 0 1 16.22-3.74 19.86 19.86 0 0 1 3.84.7 3.74 3.74 0 0 1 2.36 2.27q1.06 0 2.08.08A21.31 21.31 0 0 1 257 106c4.6-2.65 10.13-3.69 16.43-3.09a42.66 42.66 0 0 1 4.84.75 3.77 3.77 0 0 1 2.94 3.53 61.65 61.65 0 0 1-.23 7.76 38 38 0 0 1-2.33 10.68c3.1 2.83 3.73 5 3.79 6.24a3.79 3.79 0 0 1-1.55 3.29 3.57 3.57 0 0 1-3.12.52l.22 4.61a25.39 25.39 0 0 1 9.1 9.07 3.86 3.86 0 0 1-.22 4 27.05 27.05 0 0 1 4.47 13.5 3.75 3.75 0 0 1-2.35 3.52 15.13 15.13 0 0 1-3 9.12 13.39 13.39 0 0 1-6.06 4.52l-.2.06a45.34 45.34 0 0 1-11.09 11.13 3.57 3.57 0 0 1-3.45.28l-.34.26a33.66 33.66 0 0 1-5.07 3.2 3.55 3.55 0 0 1-1.89.34 3.63 3.63 0 0 1-1.73-.64 25 25 0 0 1-3.68 1.91l-.37.15-.18.08a36 36 0 0 1-16.8 2.21z"/><g id="_Group_2" data-name="&lt;Group&gt;"><path class="cls-6" d="M223.41 187.9l-21.65-16.3 1.31-31.66.57-10.03-5.61-20.38 6.32-3.17 15.48 7.13 15.96 12.52 26-12.7 10.87-.14-3.79 18.57 6.76 21.9-7.53 19.01-21.82 16.49-22.87-1.24z"/><g id="_Group_3" data-name="&lt;Group&gt;"><path class="cls-14" d="M287.64 166.83a24.14 24.14 0 0 0-8.85-17s4 .4 5 1.36a21.7 21.7 0 0 0-9.43-8.5l-.62-12.78 5 2.19s-.12-2.08-4.79-5.4c4.17-6.49 3.55-19.32 3.55-19.32-16.12-3.42-22.81 4.66-24.49 7.25a73 73 0 0 0-15 .4s3.84-2.89 7.76-3a22.52 22.52 0 0 0-19.11 3.97s-14.88-12.92-30.53-9.78c0 0-2.11 7.73 6.21 28.21 0 0-11.2 6.14-14.55 14.48 0 0 6.49-7.15 10.11-8.52 0 0-15.19 14-10.42 26.38 0 0 .77-7.37 3.14-9.28a38.26 38.26 0 0 0-.66 12.93l-.32-.26a6.91 6.91 0 0 1 .68 1.25v.11a17.59 17.59 0 0 1 2.68 1.37c-.17-2.24-.11-4.63.69-6a66.13 66.13 0 0 0 1.31 7.45c.32.27.65.54 1 .84 1.87 1.84 3.6 3.74 5.28 5.74l3.28 1.35c5 3 8.24 5.4 14 7.68 5.27 2.09 10.42 4.29 15.57 6.68 2.48 1.15 4.52.87 7.49 1.2 4 .46 6.77-.76-.17 1a23.63 23.63 0 0 1 5.57-.7l-.06-.06 1.15-.18a13.16 13.16 0 0 0 3-.9 25.55 25.55 0 0 0 10.16-7.99s-2.06 5.78-3.09 6.56c0 0 8.28-4 10.91-10.53a61.73 61.73 0 0 1-2.46 7s9.32-6.19 13.13-15.79c0 0-.48 3.55-1 4.17 0 0 9.62-3.1 5.43-16.7a5.88 5.88 0 0 1 3.45 3.12zm-80-40c-4.71-5.37-5.12-16.54-5.12-16.54 6.79 1.46 15.89 6.91 15.89 6.91-6.27 2.95-10.81 9.68-10.81 9.68zm35.51 37.69c-7.06-.12-12.71-7.34-12.62-16.12s5.95-21.41 13-21.29 12.65 12.92 12.56 21.71-5.92 15.86-12.98 15.75zm25.28-3.25a25.35 25.35 0 0 1-4.85 6.95s-12.14-6.11-6.25-7.52 12.4-2.8 11.06.62zM267 128.14l-11.15-8.74s5-7.15 16.39-7.54c.02-.01 1.22 10.92-5.24 16.28z"/><path class="cls-14" d="M254.39 149.43c-.06 3.11-1.26 5.86-2.69 6.14s-2.54-2-2.48-5.14 1.26-5.86 2.69-6.14 2.54 2.03 2.48 5.14z"/><path class="cls-6" d="M264.7 149.92c0 2.08-.84 3.92-1.79 4.11s-1.69-1.35-1.64-3.43.84-3.92 1.79-4.11 1.68 1.35 1.64 3.43z"/></g><path class="cls-14" d="M190.19 157.74s-3.32 18 3.87 27.4c0 0-1.44-8-1-11.5 0 0 1 14.85 20.69 22.49a25.32 25.32 0 0 1-8-9.53s23.49 19.1 44.79 10.65l-35.25-17.35s-13.75-19.9-14.14-20-10.96-2.16-10.96-2.16z"/></g><path id="_Path_2" data-name="&lt;Path&gt;" class="cls-15" d="M208.13 156.74s1.1 28.47 32.88 24.39"/><path id="_Path_3" data-name="&lt;Path&gt;" class="cls-6" d="M202 154.83s4.09-10.26 11.25-.49c.04 0-5.84-6.99-11.25.49z"/></g><path class="cls-6" d="M138.42 180.15h52.14v1.61h-52.14zM129.08 185.97h52.14v1.61h-52.14z"/><path class="cls-14" d="M8.3 151.81h37.77v1.61H8.3zM16.99 157.75h37.77v1.61H16.99zM56.77 225.46h52.14v1.61H56.77zM33.76 230.81H85.9v1.61H33.76z"/><path class="cls-12" d="M29.65 275.81s39.78 40.37 53.22-7.29c0 0-22.15-43.08-53.22 7.29z"/><path class="cls-16" d="M36.96 275.37l45.91-6.85M45.01 283.6l5.27-10.08M43.8 262.2l14.53 9.65M60.06 287.4l8.38-16.41M72.9 269.8l-6.12-8.25"/><path class="cls-11" d="M83.93 268.19s9.14-.48 9.84-7.62l-2.77-.69s-.64 6.7-7.07 8.31z"/><path class="cls-7" d="M100.27 41.33s62.43-34.68 63 27c-.03.04-41.7 44.04-63-27z"/><path class="cls-17" d="M109.1 44.37l54.14 24M121.76 37.28l3.1 13.89M113.1 62.51l21.08-6.57M141.53 37.9l4.8 22.55M151.41 63.41l-10.28 7.77"/><path class="cls-11" d="M164.43 69.13s11.07 3.71 9.54 12.51l-3.59-.11s1.41-8.27-5.95-12.4z"/><path class="cls-3" d="M235.61 76.28s-21.92-5.93-17.37 13.16c0 0 16.23 10.39 17.37-13.16z"/><path class="cls-18" d="M233.12 77.89l-14.88 11.55M228.67 76.67l.1 4.53M233.27 83.8l-7.01-.42M222.61 78.38l.24 7.32M221.51 87.01l3.77 1.61"/><path class="cls-11" d="M217.93 89.77s-3.13 2-2 4.59l1.1-.31a3.93 3.93 0 0 1 .9-4.28z"/><path class="cls-14" d="M213.76 196.13s56.28-14.31 79.88-.65l-5.55 7.69-15.09 2.68-49.88 1.49-16.25-1.34-11.33-2.86z"/><path class="cls-19" d="M273.86 189.94c-37.52-4.22-60.1 6.18-60.1 6.18"/><path class="cls-14" d="M260.01 149.22l9.47-5.34-4.74-4.56-4.73 2.96v6.94zM257.93 149.17l-31.31-11.97 12.84-11.81 5.82-3.17 9.12 6.05 3.53 10.01v10.89zM252.67 118.61s12.54.29 16.81 14l-9.48-2.54z"/></g></g></svg>